<?xml version="1.0" encoding="UTF-8"?><svg width="100%" height="100%" version="1.1" viewBox="0 0 351.93 246.46" xmlns="http://www.w3.org/2000/svg"><path d="m0 0s16.303 7.8132 16.303 29.428v172.66c0 21.51-16.303 30.521-16.303 30.521h123.38s5.209-4.2e-4 7.084-0.10742c2.1875-0.05 14.063-0.67627 20.625-2.4473 45.26-12.031 43.541-85 43.541-85 6.6667 17.917 18.699 40.885 18.699 40.885l29.844 60.521 39.166-106.67c-5.1563 8.0729-10.469 17.344-16.771 17.344-4.7916 0-8.4368-4.5834-12.135-10.469-3.3333-5.4688-52.76-91.354-64.688-111.88-18.073-31.146-35.73-32.969-50.365-34.219-4.4271-0.365-19.635-0.57227-19.635-0.57227zm219.79 0.0039062s23.385 6.2494 40.729 28.697c16.771 21.719 32.344 56.979 33.75 73.072l28.281-69.166s10.938-27.552 29.375-32.604zm-126.12 8.7168c11.478-0.20364 17.927 5.8626 20.707 8.7793 6.8749 7.1874 25.312 24.532 25.312 98.803v2e-3c0 74.271-18.438 91.668-25.312 98.855-3.1771 3.3333-11.146 10.781-25.938 8.2812-14.792-2.5-18.178-13.49-18.646-23.178-0.416-9.3229-0.3125-25.156-0.3125-25.156v-117.55s-0.1065-15.833 0.3125-25.156c0.468-9.6875 3.8549-20.73 18.646-23.178 1.849-0.3125 3.5908-0.46896 5.2305-0.49805z"/></svg>
